<?xml version="1.0" standalone="no"?><!DOCTYPE svg PUBLIC "-//W3C//DTD SVG 1.1//EN" "http://www.w3.org/Graphics/SVG/1.1/DTD/svg11.dtd"><svg t="1617996459913" class="icon" viewBox="0 0 1024 1024" version="1.1" xmlns="http://www.w3.org/2000/svg" p-id="4995" xmlns:xlink="http://www.w3.org/1999/xlink" width="200" height="200"><defs><style type="text/css"></style></defs><path d="M683.733333 316.288V269.312c0-4.309333-3.498667-7.850667-7.808-7.850667H301.184c-4.266667 0-7.808 3.541333-7.808 7.850667v46.933333c0 4.352 3.541333 7.850667 7.808 7.850667h374.741333c4.266667 0 7.808-3.498667 7.808-7.808zM301.184 402.346667c-4.266667 0-7.808 3.541333-7.808 7.850666v46.933334c0 4.309333 3.541333 7.850667 7.808 7.850666h179.584c4.266667 0 7.808-3.498667 7.808-7.808V410.24c0-4.309333-3.541333-7.850667-7.808-7.850667H301.184z" p-id="4996" fill="#2c2c2c"></path><path d="M441.728 844.714667H215.338667V155.776h546.474666v336.64c0 4.309333 3.498667 7.850667 7.808 7.850667h54.613334c4.309333 0 7.808-3.541333 7.808-7.850667V116.650667A31.232 31.232 0 0 0 800.853333 85.333333H176.298667a31.232 31.232 0 0 0-31.232 31.317334v767.232c0 17.322667 13.952 31.274667 31.232 31.274666h265.386666c4.309333 0 7.850667-3.498667 7.850667-7.808v-54.784a7.850667 7.850667 0 0 0-7.808-7.850666z" p-id="4997" fill="#2c2c2c"></path><path d="M876.672 895.146667l-91.050667-91.306667c21.76-28.885333 34.730667-64.896 34.730667-103.936a171.989333 171.989333 0 0 0-171.733333-172.245333 171.989333 171.989333 0 0 0-171.776 172.245333 171.989333 171.989333 0 0 0 171.776 172.202667c34.901333 0 67.328-10.453333 94.464-28.373334l92.373333 92.672a7.808 7.808 0 0 0 10.922667 0l30.293333-30.293333a7.765333 7.765333 0 0 0 0-11.008z m-228.053333-85.674667a109.397333 109.397333 0 0 1-109.312-109.568 109.397333 109.397333 0 0 1 109.312-109.653333 109.397333 109.397333 0 0 1 109.269333 109.653333 109.397333 109.397333 0 0 1-109.269333 109.610667z" p-id="4998" fill="#2c2c2c"></path></svg>