<?xml version="1.0" standalone="no"?><!DOCTYPE svg PUBLIC "-//W3C//DTD SVG 1.1//EN" "http://www.w3.org/Graphics/SVG/1.1/DTD/svg11.dtd"><svg t="1617996503664" class="icon" viewBox="0 0 1024 1024" version="1.1" xmlns="http://www.w3.org/2000/svg" p-id="5407" xmlns:xlink="http://www.w3.org/1999/xlink" width="200" height="200"><defs><style type="text/css"></style></defs><path d="M930.133333 512h-59.733333a8.533333 8.533333 0 0 0-8.533333 8.533333v341.333334H162.133333V162.133333h341.333334a8.533333 8.533333 0 0 0 8.533333-8.533333V93.866667a8.533333 8.533333 0 0 0-8.533333-8.533334h-384a34.133333 34.133333 0 0 0-34.133334 34.133334v785.066666a34.133333 34.133333 0 0 0 34.133334 34.133334h785.066666a34.133333 34.133333 0 0 0 34.133334-34.133334v-384a8.533333 8.533333 0 0 0-8.533334-8.533333z" p-id="5408" fill="#2c2c2c"></path><path d="M345.472 536.405333l-2.005333 126.848a17.066667 17.066667 0 0 0 17.066666 17.28h0.426667l125.866667-3.114666c2.133333-0.085333 4.266667-0.938667 5.76-2.432L936.192 232.32a8.533333 8.533333 0 0 0 0-12.074667l-132.608-132.437333a8.832 8.832 0 0 0-12.16 0L347.946667 530.389333a8.874667 8.874667 0 0 0-2.474667 5.973334z m67.754667 25.173334l384.298666-383.445334 48.213334 48.085334-384.512 383.701333-48.768 1.152 0.768-49.493333z" p-id="5409" fill="#2c2c2c"></path></svg>