<?xml version="1.0" standalone="no"?><!DOCTYPE svg PUBLIC "-//W3C//DTD SVG 1.1//EN" "http://www.w3.org/Graphics/SVG/1.1/DTD/svg11.dtd"><svg t="1617996514614" class="icon" viewBox="0 0 1024 1024" version="1.1" xmlns="http://www.w3.org/2000/svg" p-id="5613" xmlns:xlink="http://www.w3.org/1999/xlink" width="200" height="200"><defs><style type="text/css"></style></defs><path d="M580.992 682.538667a8.917333 8.917333 0 0 0-12.586667 0l-129.109333 129.109333c-59.776 59.776-160.682667 66.133333-226.688 0-66.133333-66.133333-59.733333-166.912 0-226.688l129.109333-129.109333a8.96 8.96 0 0 0 0-12.544L297.514667 399.061333a8.96 8.96 0 0 0-12.544 0L155.818667 528.213333a240.213333 240.213333 0 0 0 0 340.053334 240.341333 240.341333 0 0 0 340.053333 0l129.109333-129.152a8.96 8.96 0 0 0 0-12.544l-43.989333-43.989334zM868.266667 155.818667a240.213333 240.213333 0 0 0-340.010667 0L399.061333 285.013333a8.96 8.96 0 0 0 0 12.544l44.117334 44.117334c3.413333 3.413333 9.130667 3.413333 12.544 0l129.152-129.109334c59.733333-59.776 160.64-66.133333 226.645333 0 66.133333 66.133333 59.818667 166.869333 0 226.645334l-129.109333 129.152a8.917333 8.917333 0 0 0 0 12.544l44.245333 44.202666c3.413333 3.456 9.088 3.456 12.544 0l129.109333-129.109333a240.554667 240.554667 0 0 0 0-340.138667z" p-id="5614" fill="#2c2c2c"></path><path d="M621.098667 356.864a8.96 8.96 0 0 0-12.586667 0L356.864 608.426667a8.96 8.96 0 0 0 0 12.544l43.946667 43.989333c3.498667 3.456 9.130667 3.456 12.586666 0l251.562667-251.562667a8.96 8.96 0 0 0 0-12.544l-43.861333-43.989333z" p-id="5615" fill="#2c2c2c"></path></svg>